# Blender 4.4.1
# www.blender.org
o Cube
# --- Vertexek (Pozíciók) ---
v 0.300000 0.300000 -0.300000
v 0.300000 -0.300000 -0.300000
v 0.300000 0.300000 0.300000
v 0.300000 -0.300000 0.300000
v -0.300000 0.300000 -0.300000
v -0.300000 -0.300000 -0.300000
v -0.300000 0.300000 0.300000
v -0.300000 -0.300000 0.300000

# --- Texture Koordináták ---
vt 0.625000 0.500000
vt 0.875000 0.500000
vt 0.875000 0.750000
vt 0.625000 0.750000
vt 0.375000 0.750000
vt 0.625000 1.000000
vt 0.375000 1.000000
vt 0.375000 0.000000
vt 0.625000 0.000000
vt 0.625000 0.250000
vt 0.375000 0.250000
vt 0.125000 0.500000
vt 0.375000 0.500000
vt 0.125000 0.750000

# --- Normálvektorok (EZ AZ ÚJ RÉSZ) ---
# Minden oldalhoz egy irány:
vn 0.0000 1.0000 0.0000
vn 0.0000 0.0000 1.0000
vn -1.0000 0.0000 0.0000
vn 0.0000 -1.0000 0.0000
vn 1.0000 0.0000 0.0000
vn 0.0000 0.0000 -1.0000

s 0

# --- Facek (v/vt/vn formátumban) ---
# Felső lap (Normal index: 1 -> Felfelé)
f 1/1/1 5/2/1 7/3/1 3/4/1
# Elülső lap (Normal index: 2 -> Előre)
f 4/5/2 3/4/2 7/6/2 8/7/2
# Bal lap (Normal index: 3 -> Balra)
f 8/8/3 7/9/3 5/10/3 6/11/3
# Alsó lap (Normal index: 4 -> Lefelé)
f 6/12/4 2/13/4 4/5/4 8/14/4
# Jobb lap (Normal index: 5 -> Jobbra)
f 2/13/5 1/1/5 3/4/5 4/5/5
# Hátsó lap (Normal index: 6 -> Hátra)
f 6/11/6 5/10/6 1/1/6 2/13/6